# xmcd
#
# Track frame offsets: 
#        150
#        19719
#        42044
#        53757
#        73116
#        86607
#        101390
#        125087
#        144243
#        162051
#        178944
#
# Disc length: 2589 seconds
#
# Revision: 2
# Processed by: cddbd v1.5.2PL0 Copyright (c) Steve Scherf et al.
# Submitted via: ExactAudioCopyFreeDBPlugin 1.0
#
DISCID=8c0a1b0b
DTITLE=T. LOVE - Old is Gold
DYEAR=2012
DGENRE=Rock
TTITLE0=Black and Blue
TTITLE1=Frontline
TTITLE2=Old is Gold
TTITLE3=Wieczorem w mieście - film
TTITLE4=Menora Bentz
TTITLE5=Syna marnotrawny
TTITLE6=Jak nigdy
TTITLE7=Mętna woda
TTITLE8=Tamla Lavenda
TTITLE9=Poeci umierają
TTITLE10=Stanley
EXTD=
EXTT0=
EXTT1=
EXTT2=
EXTT3=
EXTT4=
EXTT5=
EXTT6=
EXTT7=
EXTT8=
EXTT9=
EXTT10=
PLAYORDER=
